#!OML:ASF F:\VICON\USERDATA\INSTALL\Justin_Nancy\Justin_Nancy.ASF
:FULLY-SPECIFIED
:DEGREES
327
root 1.01174 17.4447 -1.51719 -0.598371 -5.1819 2.96825
lowerback 7.25322 2.685 -2.00587
upperback 0.311803 3.42373 0.384836
thorax -3.88203 1.7374 1.16008
lowerneck -16.7367 -4.24848 -9.5545
upperneck 20.1899 -4.90462 6.71428
head 9.55193 -2.28404 3.27077
rclavicle -6.69656e-014 -4.37326e-015
rhumerus -28.1576 -12.1689 -79.1736
rradius 37.056
rwrist 2.74351
rhand -16.6457 13.8699
rfingers 7.12502
rthumb 9.57723 -15.8924
lclavicle -6.69656e-014 -4.37326e-015
lhumerus -38.7832 17.1169 77.9213
lradius 19.842
lwrist -15.277
lhand -11.064 25.4698
lfingers 7.12502
lthumb 14.9588 54.9096
rfemur -5.28009 2.40132 18.267
rtibia 62.3576
rfoot 10.5914 -0.430843
rtoes -1.00995
lfemur -20.4573 -1.61792 -26.4174
ltibia 30.2576
lfoot -4.94493 3.38713
ltoes 2.23169
328
root 1.02326 17.4552 -1.32976 -0.713339 -4.99314 3.26366
lowerback 7.42514 2.53442 -2.28105
upperback 0.193885 3.19369 0.342101
thorax -4.10498 1.63044 1.28385
lowerneck -16.5413 -4.12993 -9.54413
upperneck 20.2999 -4.75679 6.67536
head 9.53931 -2.22335 3.27919
rclavicle -7.85199e-015 1.19271e-015
rhumerus -28.4397 -12.1378 -79.2089
rradius 36.8653
rwrist 3.20546
rhand -16.8931 13.8653
rfingers 7.12502
rthumb 9.33853 -15.9078
lclavicle -7.85199e-015 1.19271e-015
lhumerus -38.761 16.5634 78.2462
lradius 20.0708
lwrist -14.8416
lhand -11.8312 24.8363
lfingers 7.12502
lthumb 14.2196 54.3296
rfemur -6.89612 1.71995 17.7466
rtibia 64.3038
rfoot 9.14315 -1.33613
rtoes -0.456751
lfemur -19.5526 -1.59071 -26.9073
ltibia 30.1812
lfoot -5.66724 3.42321
ltoes 2.11752
329
root 1.03163 17.4547 -1.14763 -0.745515 -4.90374 3.25577
lowerback 7.40498 2.41174 -2.17117
upperback 0.173078 3.03904 0.316658
thorax -4.10152 1.5516 1.21402
lowerneck -16.407 -4.10779 -9.60464
upperneck 20.3263 -4.74543 6.76422
head 9.52632 -2.2159 3.32386
rclavicle -3.80424e-014 -5.96354e-015
rhumerus -28.5899 -12.4442 -79.3038
rradius 36.737
rwrist 3.72057
rhand -16.739 13.9832
rfingers 7.12502
rthumb 9.48715 -15.7832
lclavicle -3.80424e-014 -5.96354e-015
lhumerus -38.3868 16.3646 78.3234
lradius 20.0128
lwrist -15.0827
lhand -11.9291 24.965
lfingers 7.12502
lthumb 14.1253 54.4648
rfemur -8.56556 1.2373 17.6546
rtibia 66.0102
rfoot 7.66516 -2.23841
rtoes 1.42513
lfemur -18.6925 -1.62318 -26.9905
ltibia 30.1498
lfoot -6.52577 3.58231
ltoes 3.22717
330
root 1.03668 17.4568 -0.966002 -0.817091 -4.65104 3.12742
lowerback 7.29835 2.22387 -2.05689
upperback 0.322161 2.8059 0.41667
thorax -3.87701 1.432 1.28748
lowerneck -16.5008 -4.06196 -9.55858
upperneck 20.3804 -4.65287 6.62101
head 9.54955 -2.18367 3.27821
rclavicle 2.20899e-014 7.95139e-016
rhumerus -28.3732 -12.714 -79.3798
rradius 36.4382
rwrist 4.33991
rhand -16.5393 14.0708
rfingers 7.12502
rthumb 9.67984 -15.6868
lclavicle 2.20899e-014 7.95139e-016
lhumerus -37.6794 16.4732 78.486
lradius 19.8493
lwrist -15.4199
lhand -11.618 25.4477
lfingers 7.12502
lthumb 14.4251 54.9264
rfemur -10.0359 0.623779 17.757
rtibia 67.427
rfoot 6.3235 -2.97179
rtoes 2.15107
lfemur -17.8597 -1.64731 -26.9482
ltibia 30.144
lfoot -7.31376 3.43861
ltoes 3.6762
331
root 1.03866 17.4667 -0.782616 -1.01548 -4.49202 3.1259
lowerback 7.33803 2.10228 -2.13654
upperback 0.496786 2.64118 0.514167
thorax -3.71976 1.34966 1.45325
lowerneck -16.6976 -4.02349 -9.48903
upperneck 20.4848 -4.5656 6.46382
head 9.60934 -2.15224 3.22284
rclavicle 5.71506e-016 5.1684e-015
rhumerus -28.2725 -12.8271 -79.4436
rradius 36.3037
rwrist 4.74928
rhand -16.6758 13.7562
rfingers 7.12502
rthumb 9.5482 -16.0074
lclavicle 5.71506e-016 5.1684e-015
lhumerus -36.982 16.435 78.7479
lradius 19.8867
lwrist -15.9313
lhand -11.2335 26.1466
lfingers 7.12502
lthumb 14.7955 55.5984
rfemur -11.402 0.190767 17.7646
rtibia 68.562
rfoot 5.31141 -3.57721
rtoes 2.02539
lfemur -17.0529 -1.39603 -27.063
ltibia 30.1215
lfoot -7.66316 3.23141
ltoes 2.61933
332
root 1.04827 17.4734 -0.592849 -1.13518 -4.45304 3.12998
lowerback 7.20121 1.99066 -2.08008
upperback 0.668002 2.5034 0.578478
thorax -3.4602 1.27723 1.51123
lowerneck -16.8116 -3.95411 -9.4216
upperneck 20.4666 -4.4248 6.25441
head 9.60511 -2.10265 3.15571
rclavicle -1.93815e-014 1.59028e-015
rhumerus -28.16 -12.9996 -79.4908
rradius 36.2836
rwrist 4.98106
rhand -16.4154 12.9279
rfingers 7.12502
rthumb 9.79936 -16.8241
lclavicle -1.93815e-014 1.59028e-015
lhumerus -36.4056 15.7451 79.3684
lradius 20.3277
lwrist -15.666
lhand -11.0493 26.723
lfingers 7.12502
lthumb 14.973 56.1617
rfemur -12.8832 -0.136126 17.7422
rtibia 69.4762
rfoot 4.42341 -4.16119
rtoes 1.24137
lfemur -16.2006 -1.22483 -27.2153
ltibia 30.0974
lfoot -7.84986 3.24987
ltoes -0.156358
333
root 1.06008 17.4698 -0.409862 -1.03434 -4.17326 3.42012
lowerback 6.98469 1.78974 -2.22143
upperback 0.673456 2.22737 0.508609
thorax -3.32396 1.14051 1.55375
lowerneck -16.875 -3.85299 -9.37437
upperneck 20.4945 -4.27039 6.16657
head 9.60985 -2.03628 3.13803
rclavicle 1.44616e-014 -9.54166e-015
rhumerus -28.1819 -13.449 -79.4933
rradius 36.0025
rwrist 5.46273
rhand -16.1016 12.4463
rfingers 7.12502
rthumb 10.1021 -17.2912
lclavicle 1.44616e-014 -9.54166e-015
lhumerus -35.9136 15.0349 79.8241
lradius 20.5544
lwrist -15.2404
lhand -10.9986 26.8067
lfingers 7.12502
lthumb 15.0218 56.2418
rfemur -14.5616 -0.66607 17.3463
rtibia 70.269
rfoot 3.42845 -4.68373
rtoes 1.69847
lfemur -15.5595 -1.21587 -27.6959
ltibia 30.1295
lfoot -9.16642 3.29041
ltoes 2.76402
334
root 1.06564 17.4621 -0.23604 -0.936215 -3.93808 3.53653
lowerback 7.01474 1.63186 -2.34046
upperback 0.474461 2.00657 0.5247
thorax -3.54163 1.03679 1.65535
lowerneck -16.4678 -3.75949 -9.27731
upperneck 20.5193 -4.16638 5.99728
head 9.52804 -2.00617 3.07982
rclavicle -1.01132e-014 -3.18055e-015
rhumerus -28.6945 -13.6526 -79.3901
rradius 35.7705
rwrist 5.94075
rhand -16.3227 12.5056
rfingers 7.12502
rthumb 9.88884 -17.2421
lclavicle -1.01132e-014 -3.18055e-015
lhumerus -35.5898 14.9502 79.8497
lradius 20.2805
lwrist -15.8674
lhand -11.0846 27.6141
lfingers 7.12502
lthumb 14.939 57.0554
rfemur -16.2388 -1.12197 17.2589
rtibia 70.8547
rfoot 2.37017 -5.09593
rtoes 2.4207
lfemur -15.0241 -1.17716 -27.9405
ltibia 30.1659
lfoot -9.43888 3.25347
ltoes 0.707521
335
root 1.07108 17.4575 -0.059472 -0.99493 -3.74255 3.40443
lowerback 7.01869 1.46458 -2.1369
upperback 0.466988 1.8019 0.581653
thorax -3.53727 0.932434 1.62081
lowerneck -16.0965 -3.68227 -9.2869
upperneck 20.4443 -4.08034 5.96004
head 9.42507 -1.97646 3.08176
rclavicle 1.27968e-014 1.35174e-014
rhumerus -29.0082 -14.0681 -79.313
rradius 35.3709
rwrist 6.57627
rhand -16.7039 13.6062
rfingers 7.12502
rthumb 9.52106 -16.1587
lclavicle 1.27968e-014 1.35174e-014
lhumerus -35.129 14.8292 79.92
lradius 20.1123
lwrist -16.3138
lhand -11.084 27.6172
lfingers 7.12502
lthumb 14.9396 57.0584
rfemur -17.6773 -1.32288 17.5306
rtibia 71.2054
rfoot 1.22772 -5.59143
rtoes 3.97703
lfemur -14.3051 -1.21222 -27.8951
ltibia 30.2389
lfoot -10.3122 3.29556
ltoes 1.30159
336
root 1.07516 17.457 0.117936 -1.02634 -3.24479 3.57147
lowerback 6.98877 1.19365 -2.23199
upperback 0.492474 1.43355 0.553549
thorax -3.47894 0.749927 1.68362
lowerneck -16.1583 -3.59571 -9.27942
upperneck 20.6022 -3.96592 5.97829
head 9.48183 -1.92126 3.10411
rclavicle -6.11263e-015 -1.66979e-014
rhumerus -29.1353 -14.3887 -79.2878
rradius 34.8685
rwrist 6.82054
rhand -17.1026 14.8638
rfingers 7.12502
rthumb 9.13634 -14.9183
lclavicle -6.11263e-015 -1.66979e-014
lhumerus -34.5803 14.1077 80.3531
lradius 20.2416
lwrist -15.8189
lhand -11.2244 27.5309
lfingers 7.12502
lthumb 14.8043 56.9821
rfemur -19.0791 -1.6937 17.4368
rtibia 71.3886
rfoot -0.3457 -5.9788
rtoes 4.65065
lfemur -13.614 -1.4748 -28.1929
ltibia 30.3487
lfoot -11.1984 3.30469
ltoes 2.12473
337
root 1.07805 17.4456 0.292596 -1.09652 -2.67515 3.75122
lowerback 7.15357 0.91712 -2.43394
upperback 0.451456 1.04714 0.609183
thorax -3.60038 0.563353 1.89133
lowerneck -16.5918 -3.5404 -9.44019
upperneck 21.1303 -3.82807 6.00153
head 9.74055 -1.86604 3.16294
rclavicle -5.81445e-015 3.18055e-015
rhumerus -29.2798 -14.4938 -79.1748
rradius 34.4178
rwrist 6.58682
rhand -17.0684 15.4334
rfingers 7.12502
rthumb 9.16939 -14.3473
lclavicle -5.81445e-015 3.18055e-015
lhumerus -34.153 13.5875 80.7705
lradius 20.4796
lwrist -15.6309
lhand -11.1511 27.4687
lfingers 7.12502
lthumb 14.8749 56.9147
rfemur -20.3363 -2.18543 17.2896
rtibia 71.3708
rfoot -1.97591 -6.33064
rtoes 4.38851
lfemur -12.8893 -1.70613 -28.5072
ltibia 30.4435
lfoot -11.8968 3.22829
ltoes 2.59711
